<svg xmlns="http://www.w3.org/2000/svg" viewBox="0 0 200 200">
  <defs>
    <radialGradient id="ladooGradient" cx="50%" cy="50%" r="70%" fx="30%" fy="30%">
      <stop offset="0%" stop-color="#ffd54f" />
      <stop offset="100%" stop-color="#f9a825" />
    </radialGradient>
  </defs>
  
  <!-- Sweet Base (Ladoo) -->
  <circle cx="100" cy="100" r="60" fill="url(#ladooGradient)" />
  
  <!-- Texture -->
  <circle cx="100" cy="100" r="60" fill="none" stroke="#f57f17" stroke-width="1" stroke-dasharray="2,2" />
  
  <!-- Sugar Coating -->
  <circle cx="100" cy="100" r="60" fill="none" stroke="#ffe0b2" stroke-width="3" stroke-dasharray="5,5" />
  
  <!-- Highlights -->
  <circle cx="80" cy="80" r="10" fill="#ffffff" opacity="0.2" />
  <circle cx="120" cy="70" r="5" fill="#ffffff" opacity="0.2" />
  
  <!-- Decorative elements for sweets -->
  <circle cx="70" cy="90" r="3" fill="#e57373" /> <!-- Red element -->
  <circle cx="130" cy="90" r="3" fill="#e57373" /> <!-- Red element -->
  <circle cx="90" cy="130" r="3" fill="#81c784" /> <!-- Green element -->
  <circle cx="110" cy="130" r="3" fill="#81c784" /> <!-- Green element -->
  
  <!-- Pistachios/Almonds -->
  <ellipse cx="100" cy="70" rx="8" ry="5" fill="#a5d6a7" transform="rotate(30, 100, 70)" />
  <ellipse cx="75" cy="115" rx="8" ry="5" fill="#a5d6a7" transform="rotate(-20, 75, 115)" />
  <ellipse cx="125" cy="115" rx="8" ry="5" fill="#a5d6a7" transform="rotate(20, 125, 115)" />
  
  <!-- Cardamom/Spice Specks -->
  <circle cx="85" cy="85" r="1" fill="#5d4037" />
  <circle cx="95" cy="95" r="1" fill="#5d4037" />
  <circle cx="105" cy="85" r="1" fill="#5d4037" />
  <circle cx="115" cy="95" r="1" fill="#5d4037" />
  <circle cx="95" cy="105" r="1" fill="#5d4037" />
  <circle cx="105" cy="115" r="1" fill="#5d4037" />
  <circle cx="115" cy="105" r="1" fill="#5d4037" />
</svg>
